<svg xmlns="http://www.w3.org/2000/svg" width="24" height="24"><path d="M12.543 2c-1.535.04-3 .375-4.254 1 .664-.063.774-.11 1.399-.11C12.082 2.833 13.152 3.618 14 5c.89 1.43.86 3.156.86 4.586 0 3.387 1.788 4.414 3.574 4.414C20.352 14 22 11.902 22 9.984 21.953 5.836 16.914 2 12.543 2zM7.875 4c-.75-.016-1.516.148-2.148.484C2.035 6.438.969 12.621 3.055 16.441c.746 1.41 1.761 2.551 2.941 3.383-.289-.406-.492-.715-.805-1.246-.843-1.512-.757-3.246 0-4.672.801-1.511 2.223-2.308 3.465-2.976 2.98-1.555 2.895-3.735 2.184-5.29-.5-1.085-1.715-1.613-2.965-1.64zm13.973 10c-1.137 1.855-2.88 2.668-4.489 2.668-1.738 0-3.164-.625-4.37-1.383-2.407-1.515-4.727-.715-5.618.848-.937 1.605 0 4.101 1.695 5.086 3.567 2.093 9.454-.27 11.594-4.063A9.519 9.519 0 0021.848 14z"/></svg>